# xmcd
#
# Track frame offsets:
#	150
#	14225
#	31075
#	49425
#	63567
#	77080
#	90575
#	102712
#	117392
#	133862
#	148877
#	165425
#
# Disc length: 2422 seconds
#
# Revision: 0
# Processed by: cddbd v1.5.1PL2 Copyright (c) Steve Scherf et al.
# Submitted via: audiograbber 1.81.02
#
DISCID=b009740c
DTITLE=Sakelariou Rita - Kai Xana Eroteymeni
DYEAR=1995
DGENRE=The Last Album
TTITLE0=Sakelariou Rita - Mi Me Ksexnas
TTITLE1=Sakelariou Rita - ;Omorfa Glyka Mou Xeili
TTITLE2=Sakelariou Rita - Dyo Balitses
TTITLE3=Sakelariou Rita - Ase Me Mena
TTITLE4=Sakelariou Rita - Pouthena Den Pas
TTITLE5=Sakelariou Rita - Akolouthise Me
TTITLE6=Sakelariou Rita - Sto Apenanti Trapezi
TTITLE7=Sakelariou Rita - Me Pantremeno An Mplexteis
TTITLE8=Sakelariou Rita - Me Proin Den Milao
TTITLE9=Sakelariou Rita - Proto Vradi Xorismeni
TTITLE10=Sakelariou Rita - To Tilefono
TTITLE11=Sakelariou Rita - Sikofanties
EXTD=
EXTT0=
EXTT1=
EXTT2=
EXTT3=
EXTT4=
EXTT5=
EXTT6=
EXTT7=
EXTT8=
EXTT9=
EXTT10=
EXTT11=
PLAYORDER=
